GIL03_xfast2_ik
nRows=3
nColumns=375

# SIMM Motion File Header:
name GIL03_xfast2_ik
datacolumns 375
datarows 3
otherdata 1
range 0.40000000 0.41667000
endheader
time	pelvis_tx	pelvis_ty	pelvis_tz	pelvis_tilt	pelvis_list	pelvis_rotation	hip_flexion_r	hip_adduction_r	hip_rotation_r	knee_angle_r	ankle_angle_r	hip_flexion_l	hip_adduction_l	hip_rotation_l	knee_angle_l	ankle_angle_l	lumbar_extension	lumbar_bending	lumbar_rotation	subtalar_angle_r	mtp_angle_r	subtalar_angle_l	mtp_angle_l	asis_r_px	asis_r_py	asis_r_pz	asis_l_px	asis_l_py	asis_l_pz	midasis_px	midasis_py	midasis_pz	psis_r_px	psis_r_py	psis_r_pz	psis_l_px	psis_l_py	psis_l_pz	hip_r_px	hip_r_py	hip_r_pz	hip_l_px	hip_l_py	hip_l_pz	midhip_px	midhip_py	midhip_pz	epicondLat_r_px	epicondLat_r_py	epicondLat_r_pz	epicondMed_r_px	epicondMed_r_py	epicondMed_r_pz	thighwand_r_px	thighwand_r_py	thighwand_r_pz	upperleg1_r_px	upperleg1_r_py	upperleg1_r_pz	upperleg2_r_px	upperleg2_r_py	upperleg2_r_pz	malleolusLat_r_px	malleolusLat_r_py	malleolusLat_r_pz	malleolusMedv_r_px	malleolusMedv_r_py	malleolusMedv_r_pz	shankwand_r_px	shankwand_r_py	shankwand_r_pz	lowerleg1_r_px	lowerleg1_r_py	lowerleg1_r_pz	knee_r_px	knee_r_py	knee_r_pz	ankle_r_px	ankle_r_py	ankle_r_pz	toe_r_px	toe_r_py	toe_r_pz	epicondLat_l_px	epicondLat_l_py	epicondLat_l_pz	epicondMed_l_px	epicondMed_l_py	epicondMed_l_pz	thighwand_l_px	thighwand_l_py	thighwand_l_pz	upperleg1_l_px	upperleg1_l_py	upperleg1_l_pz	upperleg2_l_px	upperleg2_l_py	upperleg2_l_pz	malleolusLat_l_px	malleolusLat_l_py	malleolusLat_l_pz	malleolusMedv_l_px	malleolusMedv_l_py	malleolusMedv_l_pz	shankwand_l_px	shankwand_l_py	shankwand_l_pz	lowerleg1_l_px	lowerleg1_l_py	lowerleg1_l_pz	knee_l_px	knee_l_py	knee_l_pz	ankle_l_px	ankle_l_py	ankle_l_pz	toe_l_px	toe_l_py	toe_l_pz	subclavicle_r_px	subclavicle_r_py	subclavicle_r_pz	subclavicle_l_px	subclavicle_l_py	subclavicle_l_pz	neck_px	neck_py	neck_pz	sternalnotch_px	sternalnotch_py	sternalnotch_pz	xyphoidprocess_px	xyphoidprocess_py	xyphoidprocess_pz	midhip_tx	midhip_ty	midhip_tz	hip_r_tx	hip_r_ty	hip_r_tz	hip_l_tx	hip_l_ty	hip_l_tz	knee_r_tx	knee_r_ty	knee_r_tz	knee_l_tx	knee_l_ty	knee_l_tz	ankle_r_tx	ankle_r_ty	ankle_r_tz	ankle_l_tx	ankle_l_ty	ankle_l_tz	midasis_tx	midasis_ty	midasis_tz	asis_r_tx	asis_r_ty	asis_r_tz	asis_l_tx	asis_l_ty	asis_l_tz	psis_r_tx	psis_r_ty	psis_r_tz	psis_l_tx	psis_l_ty	psis_l_tz	epicondLat_r_tx	epicondLat_r_ty	epicondLat_r_tz	epicondLat_l_tx	epicondLat_l_ty	epicondLat_l_tz	epicondMed_r_tx	epicondMed_r_ty	epicondMed_r_tz	epicondMed_l_tx	epicondMed_l_ty	epicondMed_l_tz	malleolusLat_r_tx	malleolusLat_r_ty	malleolusLat_r_tz	malleolusLat_l_tx	malleolusLat_l_ty	malleolusLat_l_tz	malleolusMedv_r_tx	malleolusMedv_r_ty	malleolusMedv_r_tz	malleolusMedv_l_tx	malleolusMedv_l_ty	malleolusMedv_l_tz	neck_tx	neck_ty	neck_tz	subclavicle_r_tx	subclavicle_r_ty	subclavicle_r_tz	subclavicle_l_tx	subclavicle_l_ty	subclavicle_l_tz	sternalnotch_tx	sternalnotch_ty	sternalnotch_tz	xyphoidprocess_tx	xyphoidprocess_ty	xyphoidprocess_tz	thighwand_r_tx	thighwand_r_ty	thighwand_r_tz	thighwand_l_tx	thighwand_l_ty	thighwand_l_tz	upperleg1_r_tx	upperleg1_r_ty	upperleg1_r_tz	upperleg1_l_tx	upperleg1_l_ty	upperleg1_l_tz	upperleg2_r_tx	upperleg2_r_ty	upperleg2_r_tz	upperleg2_l_tx	upperleg2_l_ty	upperleg2_l_tz	shankwand_r_tx	shankwand_r_ty	shankwand_r_tz	shankwand_l_tx	shankwand_l_ty	shankwand_l_tz	lowerleg1_r_tx	lowerleg1_r_ty	lowerleg1_r_tz	lowerleg1_l_tx	lowerleg1_l_ty	lowerleg1_l_tz	toe_r_tx	toe_r_ty	toe_r_tz	toe_l_tx	toe_l_ty	toe_l_tz	ground_force_vx	ground_force_vy	ground_force_vz	ground_force_px	ground_force_py	ground_force_pz	ground_force_vx	ground_force_vy	ground_force_vz	ground_force_px	ground_force_py	ground_force_pz	ground_torque_x	ground_torque_y	ground_torque_z	ground_torque_x	ground_torque_y	ground_torque_z	ground_marker_px	ground_marker_py	ground_marker_pz	ground_marker_px	ground_marker_py	ground_marker_pz	ground_marker_px	ground_marker_py	ground_marker_pz	ground_marker_px	ground_marker_py	ground_marker_pz	ground_marker_px	ground_marker_py	ground_marker_pz	ground_marker_px	ground_marker_py	ground_marker_pz	ground_marker_px	ground_marker_py	ground_marker_pz	ground_marker_px	ground_marker_py	ground_marker_pz	ground_marker_px	ground_marker_py	ground_marker_pz	ground_marker_px	ground_marker_py	ground_marker_pz	ground_marker_px	ground_marker_py	ground_marker_pz	ground_marker_px	ground_marker_py	ground_marker_pz	ground_marker_px	ground_marker_py	ground_marker_pz	ground_marker_px	ground_marker_py	ground_marker_pz	ground_marker_px	ground_marker_py	ground_marker_pz	ground_marker_px	ground_marker_py	ground_marker_pz	ground_marker_px	ground_marker_py	ground_marker_pz	ground_marker_px	ground_marker_py	ground_marker_pz	ground_marker_px	ground_marker_py	ground_marker_pz	ground_marker_px	ground_marker_py	ground_marker_pz	ground_marker_px	ground_marker_py	ground_marker_pz	ground_marker_px	ground_marker_py	ground_marker_pz	ground_marker_px	ground_marker_py	ground_marker_pz	ground_marker_px	ground_marker_py	ground_marker_pz	ground_marker_px	ground_marker_py	ground_marker_pz	ground_marker_px	ground_marker_py	ground_marker_pz	ground_marker_px	ground_marker_py	ground_marker_pz	ground_marker_px	ground_marker_py	ground_marker_pz	ground_marker_px	ground_marker_py	ground_marker_pz	ground_marker_px	ground_marker_py	ground_marker_pz	ground_marker_px	ground_marker_py	ground_marker_pz	ground_marker_px	ground_marker_py	ground_marker_pz	ground_marker_px	ground_marker_py	ground_marker_pz	ground_marker_px	ground_marker_py	ground_marker_pz	ground_marker_px	ground_marker_py	ground_marker_pz	ground_marker_px	ground_marker_py	ground_marker_pz	ground_marker_px	ground_marker_py	ground_marker_pz
      0.40000000	      1.20919306	      0.86191043	     -0.27148256	      0.11978122	     -2.00127754	      5.06100872	     22.95891525	      0.39577331	     -3.94486782	    -16.18354821	     -3.83566233	     -9.44773516	     -7.01719447	     -3.03301463	    -41.58252765	     -6.69961371	     -9.96326380	      6.99374797	      1.25072605	      0.00000000	      0.00000000	      0.00000000	      0.00000000	      1.26612164	      0.86849915	     -0.18353474	      1.23060033	      0.85541664	     -0.38165961	      1.22018382	      0.86189942	     -0.27245532	      1.10388234	      0.91625463	     -0.23531584	      1.09391837	      0.91341330	     -0.28923575	      1.15959915	      0.81220430	     -0.19923910	      1.14799800	      0.80760167	     -0.33026262	      1.15379857	      0.80990298	     -0.26475086	      1.33929420	      0.46315082	     -0.14124275	      1.31386812	      0.44654848	     -0.24648654	      1.39712172	      0.66524067	     -0.21492706	      1.31385029	      0.68848700	     -0.16232596	      1.33546069	      0.60525686	     -0.15937624	      1.34191964	      0.05216847	     -0.16387889	      1.37194443	      0.07042904	     -0.22841060	      1.32813209	      0.17251621	     -0.09001424	      1.33159843	      0.18020894	     -0.13150937	      1.30430169	      0.46602556	     -0.20261278	      1.35133844	      0.06972424	     -0.20320231	      1.46573146	      0.03733947	     -0.15694517	      1.09106283	      0.43130427	     -0.42076395	      1.08682921	      0.41128312	     -0.31338580	      1.25198305	      0.56233456	     -0.35746647	      1.18394049	      0.62287879	     -0.40140777	      1.16745018	      0.53634534	     -0.40172435	      0.75378936	      0.18353543	     -0.38467107	      0.78760000	      0.16352310	     -0.32922649	      0.80840894	      0.29822247	     -0.43744716	      0.82978514	      0.28333858	     -0.40289997	      1.08533347	      0.43489586	     -0.35824381	      0.77524841	      0.18403802	     -0.34463699	      0.79426126	      0.06648816	     -0.40687745	      1.22739692	      1.24803738	     -0.18996151	      1.22026307	      1.25475990	     -0.29873617	      1.12150836	      1.30277339	     -0.23009386	      1.20805762	      1.26040735	     -0.24799581	      1.28808966	      1.10522683	     -0.26158392	      1.15901300	      0.81341700	     -0.26118200	      1.16848900	      0.79774800	     -0.19939400	      1.14748100	      0.79366000	     -0.31490000	      1.31368300	      0.44949600	     -0.20372000	      1.08434200	      0.43246100	     -0.34371200	      1.35647300	      0.06281000	     -0.21378300	      0.76970400	      0.18170500	     -0.34921800	      1.21991500	      0.87375300	     -0.26511300	      1.22942300	      0.87638400	     -0.16541200	      1.21040800	      0.87112100	     -0.36481400	      1.06709500	      0.90636400	     -0.21868300	      1.06152200	      0.90894700	     -0.27445500	      1.32588300	      0.45391800	     -0.15027200	      1.09082100	      0.43563700	     -0.39773200	      1.30762100	      0.43972800	     -0.24950400	      1.08658000	      0.41136400	     -0.30273400	      1.34915100	      0.06101700	     -0.17602800	      0.77380100	      0.17740000	     -0.38725600	      1.38018500	      0.07503700	     -0.24185300	      0.79143100	      0.17478200	     -0.32533700	      1.13041000	      1.32188400	     -0.22808800	      1.22838300	      1.23240500	     -0.19565200	      1.21370800	      1.23670300	     -0.29810200	      1.20698800	      1.24783400	     -0.25002600	      1.23848000	      1.07522500	     -0.26023500	      1.37459900	      0.66429000	     -0.21333800	      1.25227400	      0.57250100	     -0.32228600	      1.29596500	      0.67772700	     -0.15677500	      1.18510700	      0.62615500	     -0.37874300	      1.32340900	      0.59724000	     -0.15875500	      1.17264100	      0.53981800	     -0.38027300	      1.33584900	      0.17506500	     -0.10365500	      0.84636900	      0.27567700	     -0.45038100	      1.34422500	      0.18302800	     -0.14594500	      0.84981000	      0.27252500	     -0.40966200	      1.47067300	      0.04266600	     -0.17094900	      0.81365400	      0.05959800	     -0.34539900	   -105.63353274	    532.44292490	     10.51866933	      1.37608032	      0.00000000	     -0.20316988	      1.06686952	     10.29847680	      1.17279073	      0.81716058	      0.00000000	     -0.30919672	      0.00000000	     -0.81508435	      0.00000000	      0.00000000	     -0.02169176	      0.00000000	      1.15901256	      0.81341732	     -0.26118162	      1.16848910	      0.79774785	     -0.19939449	      1.14748085	      0.79366016	     -0.31490022	      1.31368327	      0.44949558	     -0.20371957	      1.08434153	      0.43246108	     -0.34371215	      1.35647321	      0.06280991	     -0.21378285	      0.76970440	      0.18170530	     -0.34921750	      1.21991539	      0.87375283	     -0.26511315	      1.22942281	      0.87638444	     -0.16541226	      1.21040785	      0.87112129	     -0.36481401	      1.06709480	      0.90636414	     -0.21868333	      1.06152201	      0.90894735	     -0.27445519	      1.32588279	      0.45391810	     -0.15027231	      1.09082127	      0.43563747	     -0.39773229	      1.30762053	      0.43972799	     -0.24950449	      1.08657956	      0.41136435	     -0.30273405	      1.34915078	      0.06101706	     -0.17602816	      0.77380121	      0.17739992	     -0.38725603	      1.38018453	      0.07503679	     -0.24185269	      0.79143113	      0.17478198	     -0.32533693	      1.13041043	      1.32188392	     -0.22808845	      1.22838259	      1.23240530	     -0.19565246	      1.21370769	      1.23670280	     -0.29810151	      1.20698822	      1.24783397	     -0.25002638	      1.23847997	      1.07522476	     -0.26023459	      1.37459910	      0.66428959	     -0.21333794	      1.25227439	      0.57250065	     -0.32228583	      1.29596496	      0.67772716	     -0.15677476	      1.18510723	      0.62615508	     -0.37874296	      1.32340908	      0.59723967	     -0.15875490	      1.17264104	      0.53981817	     -0.38027281	      1.33584929	      0.17506531	     -0.10365533	      0.84636867	      0.27567714	     -0.45038053	      1.34422493	      0.18302833	     -0.14594541	      0.84980953	      0.27252492	     -0.40966162	      1.47067332	      0.04266617	     -0.17094862	      0.81365359	      0.05959840	     -0.34539914
      0.40833000	      1.22721795	      0.86253823	     -0.26949475	      0.30451420	     -2.89461095	      4.52212471	     22.62883556	      1.84200732	     -3.77014054	    -18.03141576	     -2.50937355	     -7.82732021	     -8.08264727	     -3.42197371	    -45.79471380	     -6.96014289	     -9.91631783	      7.88908258	      2.15480520	      0.00000000	      0.00000000	      0.00000000	      0.00000000	      1.28328627	      0.87070328	     -0.18112752	      1.24969190	      0.85441247	     -0.37935064	      1.23821741	      0.86255276	     -0.27036359	      1.12137665	      0.91704791	     -0.23517295	      1.11193456	      0.91333225	     -0.28913359	      1.17711812	      0.81377754	     -0.19695666	      1.16677629	      0.80709667	     -0.32799614	      1.17194720	      0.81043711	     -0.26247640	      1.35542740	      0.46359446	     -0.14155072	      1.32962598	      0.44773013	     -0.24681699	      1.41393989	      0.66586068	     -0.21420312	      1.33092376	      0.68916221	     -0.16122425	      1.35217281	      0.60582126	     -0.15883047	      1.34321955	      0.05181564	     -0.16623941	      1.37371096	      0.06928905	     -0.23077026	      1.33406326	      0.17221339	     -0.09173968	      1.33769189	      0.17998331	     -0.13320653	      1.32069264	      0.46696376	     -0.20281397	      1.35316442	      0.06921272	     -0.20550378	      1.46703028	      0.03506628	     -0.15921293	      1.12187852	      0.42979476	     -0.42105147	      1.11780951	      0.40898102	     -0.31381777	      1.27840361	      0.56533118	     -0.35623942	      1.20871028	      0.62402001	     -0.40011074	      1.19490272	      0.53702246	     -0.40103030	      0.77430273	      0.19455060	     -0.38356617	      0.80739974	      0.17328252	     -0.32815849	      0.83351882	      0.30672426	     -0.43678509	      0.85434928	      0.29104713	     -0.40225540	      1.11612396	      0.43191156	     -0.35866689	      0.79587341	      0.19425674	     -0.34359005	      0.80926091	      0.07571222	     -0.40540675	      1.24398820	      1.24866091	     -0.18919060	      1.23645718	      1.25564074	     -0.29792228	      1.13772380	      1.30303396	     -0.22881977	      1.22439843	      1.26109926	     -0.24712620	      1.30506902	      1.10631127	     -0.26139827	      1.17789300	      0.81431000	     -0.25968200	      1.18651900	      0.79861800	     -0.19616100	      1.16613100	      0.79254700	     -0.31169100	      1.32971300	      0.45075300	     -0.20364400	      1.11418100	      0.42860700	     -0.34242600	      1.35821600	      0.06291500	     -0.21476000	      0.79017100	      0.19248000	     -0.34931100	      1.23799900	      0.87373000	     -0.26285700	      1.24698000	      0.87804400	     -0.16309600	      1.22901700	      0.86941700	     -0.36261900	      1.08465000	      0.90641400	     -0.21818700	      1.07904900	      0.90831200	     -0.27418800	      1.34232900	      0.45479800	     -0.15026400	      1.12054300	      0.43226000	     -0.39643000	      1.32792800	      0.44417500	     -0.24948400	      1.11787300	      0.40551400	     -0.30319700	      1.35203700	      0.06137300	     -0.17679100	      0.79463800	      0.18745500	     -0.38721900	      1.38205500	      0.07469000	     -0.24312000	      0.81116800	      0.18513100	     -0.32524500	      1.14688900	      1.32153000	     -0.22685500	      1.24442300	      1.23186800	     -0.19500100	      1.22970100	      1.23645000	     -0.29737100	      1.22303600	      1.24756700	     -0.24928400	      1.25404000	      1.07481400	     -0.25993800	      1.39197600	      0.66564500	     -0.21246800	      1.27788900	      0.57313200	     -0.32033600	      1.31357400	      0.68115300	     -0.15427600	      1.20903600	      0.62424100	     -0.37708100	      1.34253700	      0.60100900	     -0.15754600	      1.19964600	      0.53757200	     -0.37934600	      1.34515800	      0.17555000	     -0.10384800	      0.87206600	      0.28130500	     -0.45028900	      1.35509300	      0.18527000	     -0.14596000	      0.87558600	      0.27807800	     -0.41025300	      1.47293900	      0.04115700	     -0.17224100	      0.82879900	      0.06708500	     -0.34729100	   -120.43540239	    545.20899704	      7.34738084	      1.38597803	      0.00000000	     -0.20212076	      0.00000000	      0.00000000	      0.00000000	      0.82022266	      0.00000000	     -0.30731586	      0.00000000	     -0.85402576	      0.00000000	      0.00000000	      0.00000000	      0.00000000	      1.17789340	      0.81431031	     -0.25968191	      1.18651855	      0.79861820	     -0.19616129	      1.16613114	      0.79254681	     -0.31169102	      1.32971311	      0.45075282	     -0.20364405	      1.11418128	      0.42860711	     -0.34242603	      1.35821617	      0.06291513	     -0.21476032	      0.79017067	      0.19247991	     -0.34931079	      1.23799860	      0.87373006	     -0.26285750	      1.24698007	      0.87804353	     -0.16309561	      1.22901714	      0.86941665	     -0.36261937	      1.08465028	      0.90641439	     -0.21818747	      1.07904923	      0.90831178	     -0.27418759	      1.34232891	      0.45479771	     -0.15026352	      1.12054288	      0.43225974	     -0.39643008	      1.32792807	      0.44417545	     -0.24948424	      1.11787260	      0.40551436	     -0.30319691	      1.35203707	      0.06137273	     -0.17679071	      0.79463780	      0.18745546	     -0.38721925	      1.38205516	      0.07469042	     -0.24312007	      0.81116772	      0.18513052	     -0.32524452	      1.14688861	      1.32153034	     -0.22685541	      1.24442339	      1.23186767	     -0.19500069	      1.22970116	      1.23644984	     -0.29737148	      1.22303593	      1.24756706	     -0.24928449	      1.25403988	      1.07481372	     -0.25993761	      1.39197564	      0.66564482	     -0.21246839	      1.27788925	      0.57313234	     -0.32033587	      1.31357384	      0.68115288	     -0.15427640	      1.20903575	      0.62424111	     -0.37708148	      1.34253728	      0.60100883	     -0.15754633	      1.19964588	      0.53757221	     -0.37934554	      1.34515846	      0.17555007	     -0.10384800	      0.87206632	      0.28130451	     -0.45028901	      1.35509336	      0.18527032	     -0.14596044	      0.87558603	      0.27807796	     -0.41025311	      1.47293937	      0.04115676	     -0.17224051	      0.82879943	      0.06708527	     -0.34729138
      0.41667000	      1.24525331	      0.86351336	     -0.26732760	      0.43790063	     -3.79235921	      3.97883571	     22.12500478	      3.23884217	     -3.93735434	    -19.54533908	     -1.05485387	     -6.07148365	     -9.04122466	     -3.46685213	    -49.92371043	     -6.57643878	     -9.82000937	      8.67631174	      3.48965123	      0.00000000	      0.00000000	      0.00000000	      0.00000000	      1.30044853	      0.87322093	     -0.17856756	      1.26880239	      0.85374214	     -0.37682366	      1.25626051	      0.86354684	     -0.26809153	      1.13893521	      0.91823851	     -0.23487317	      1.13002147	      0.91365405	     -0.28885685	      1.19459721	      0.81574177	     -0.19451820	      1.18553124	      0.80698797	     -0.32553008	      1.19006423	      0.81136487	     -0.26002414	      1.36986137	      0.46372402	     -0.14105608	      1.34430001	      0.44883585	     -0.24652331	      1.43026849	      0.66602939	     -0.21202948	      1.34725971	      0.68962096	     -0.15916759	      1.36782260	      0.60609444	     -0.15730887	      1.34376592	      0.05188052	     -0.16850795	      1.37505948	      0.06870682	     -0.23282642	      1.33852168	      0.17203857	     -0.09324705	      1.34255596	      0.17994641	     -0.13465030	      1.33571039	      0.46778686	     -0.20242170	      1.35443764	      0.06917709	     -0.20762563	      1.46759205	      0.03370615	     -0.16059211	      1.15369538	      0.42875734	     -0.42018683	      1.14934499	      0.40745085	     -0.31306100	      1.30516913	      0.56905623	     -0.35353286	      1.23400794	      0.62561376	     -0.39784497	      1.22303083	      0.53821910	     -0.39916593	      0.79689819	      0.20553568	     -0.38242507	      0.82903616	      0.18327572	     -0.32684272	      0.86053497	      0.31505260	     -0.43607330	      0.88067337	      0.29875125	     -0.40142233	      1.14764471	      0.42954716	     -0.35797737	      0.81836411	      0.20460439	     -0.34240237	      0.82803883	      0.08550634	     -0.40384655	      1.26092919	      1.24979887	     -0.18917726	      1.25215469	      1.25695971	     -0.29780388	      1.15393945	      1.30367536	     -0.22751186	      1.24063093	      1.26224901	     -0.24686591	      1.32197330	      1.10793045	     -0.26235649	      1.19705300	      0.81603100	     -0.25810900	      1.20425100	      0.79988300	     -0.19301500	      1.18452700	      0.79185800	     -0.30854100	      1.34419700	      0.45192800	     -0.20319500	      1.14453000	      0.42552800	     -0.34058000	      1.35933800	      0.06320300	     -0.21549400	      0.81263900	      0.20334000	     -0.34889000	      1.25587200	      0.87405500	     -0.26064700	      1.26429500	      0.88003700	     -0.16078400	      1.24744800	      0.86807300	     -0.36051100	      1.10201800	      0.90690100	     -0.21793000	      1.09649100	      0.90805200	     -0.27400400	      1.35688800	      0.45547000	     -0.14979700	      1.15102500	      0.42953800	     -0.39454300	      1.34467400	      0.44781400	     -0.24961700	      1.14851100	      0.40203700	     -0.30133700	      1.35390900	      0.06178700	     -0.17740500	      0.81748100	      0.19752000	     -0.38663900	      1.38332300	      0.07430700	     -0.24391100	      0.83333400	      0.19535400	     -0.32461700	      1.16341600	      1.32148200	     -0.22589200	      1.26026300	      1.23136700	     -0.19467700	      1.24564500	      1.23659900	     -0.29707600	      1.23896400	      1.24751100	     -0.24881700	      1.26917300	      1.07463800	     -0.26051100	      1.40866700	      0.66643100	     -0.21050600	      1.30341700	      0.57465200	     -0.31735600	      1.33025300	      0.68346900	     -0.15134600	      1.23326200	      0.62359300	     -0.37421800	      1.35932100	      0.60355700	     -0.15574800	      1.22654600	      0.53681600	     -0.37675700	      1.35242600	      0.17589100	     -0.10386100	      0.89931500	      0.28689100	     -0.44968000	      1.36092300	      0.18633500	     -0.14574200	      0.90341400	      0.28349800	     -0.41003300	      1.47434800	      0.04030100	     -0.17290400	      0.84764400	      0.07543400	     -0.34963600	   -131.94011199	    566.88998864	      3.98360086	      1.39417603	      0.00000000	     -0.20112787	      0.00000000	      0.00000000	      0.00000000	      0.82293262	      0.00000000	     -0.30533417	      0.00000000	     -0.78239600	      0.00000000	      0.00000000	      0.00000000	      0.00000000	      1.19705272	      0.81603146	     -0.25810897	      1.20425081	      0.79988313	     -0.19301505	      1.18452680	      0.79185760	     -0.30854070	      1.34419739	      0.45192793	     -0.20319496	      1.14452958	      0.42552772	     -0.34057990	      1.35933769	      0.06320316	     -0.21549365	      0.81263947	      0.20333996	     -0.34889016	      1.25587177	      0.87405539	     -0.26064727	      1.26429522	      0.88003737	     -0.16078369	      1.24744844	      0.86807340	     -0.36051086	      1.10201836	      0.90690148	     -0.21792983	      1.09649098	      0.90805161	     -0.27400354	      1.35688829	      0.45546991	     -0.14979650	      1.15102458	      0.42953816	     -0.39454269	      1.34467411	      0.44781396	     -0.24961706	      1.14851058	      0.40203705	     -0.30133721	      1.35390937	      0.06178665	     -0.17740455	      0.81748092	      0.19752000	     -0.38663852	      1.38332272	      0.07430683	     -0.24391128	      0.83333385	      0.19535406	     -0.32461676	      1.16341555	      1.32148159	     -0.22589231	      1.26026297	      1.23136735	     -0.19467695	      1.24564528	      1.23659885	     -0.29707602	      1.23896396	      1.24751139	     -0.24881692	      1.26917315	      1.07463753	     -0.26051095	      1.40866685	      0.66643053	     -0.21050645	      1.30341685	      0.57465184	     -0.31735605	      1.33025324	      0.68346947	     -0.15134607	      1.23326170	      0.62359262	     -0.37421808	      1.35932148	      0.60355687	     -0.15574801	      1.22654581	      0.53681600	     -0.37675726	      1.35242605	      0.17589101	     -0.10386118	      0.89931452	      0.28689095	     -0.44967991	      1.36092329	      0.18633509	     -0.14574221	      0.90341443	      0.28349775	     -0.41003323	      1.47434795	      0.04030096	     -0.17290430	      0.84764415	      0.07543401	     -0.34963560
